# xmcd CD database file
#
# Track frame offsets:
#	150
#	12853
#	23080
#	34628
#	47350
#	59548
#	74183
#	86895
#	101115
#	114090
#	128435
#	140948
#	153435
#	166260
#	178053
#	191410
#	203408
#	214873
#	228103
#	240083
#	250805
#	263653
#	275020
#
# Disc length: 3844 seconds
#
# Revision: 0
# Processed by: cddbd v1.5.2PL0 Copyright (c) Steve Scherf et al.
# Submitted via: CDex 1.70beta2
#
DISCID=370f0217
DTITLE=Kirby, John - John Kirby and His Orchestra 1939-1941
DYEAR=1900
DGENRE=Jazz
TTITLE0=One Alone
TTITLE1=Humoresque
TTITLE2=Serenade
TTITLE3=Jumpin' in the Pump Room
TTITLE4=Milumbu
TTITLE5=You Go Your Way
TTITLE6=20th Century Closet
TTITLE7=Temptation
TTITLE8=Blues Petite
TTITLE9=On a Little Street in Singapore
TTITLE10=Chloe
TTITLE11=Andiology
TTITLE12=Can't We Be Friends?
TTITLE13=Then I'll Be Happy
TTITLE14=I Love You Truly
TTITLE15=Frasquita Serenade
TTITLE16=Sextet from Lucia
TTITLE17=Coquette
TTITLE18=Zooming at the Zombie
TTITLE19=Bounce of the Sugar Plum Fairy
TTITLE20=Beethoven Riffs On
TTITLE21=Double Talk
TTITLE22=Cutting the Campus
EXTD=
EXTT0=
EXTT1=
EXTT2=
EXTT3=
EXTT4=
EXTT5=
EXTT6=
EXTT7=
EXTT8=
EXTT9=
EXTT10=
EXTT11=
EXTT12=
EXTT13=
EXTT14=
EXTT15=
EXTT16=
EXTT17=
EXTT18=
EXTT19=
EXTT20=
EXTT21=
EXTT22=
PLAYORDER=
